<svg xmlns="http://www.w3.org/2000/svg" id="Layer_1" viewBox="0 0 56 56" width="56" height="56"><defs><style>.cls-1{fill:#010101}</style></defs><path id="Behance" d="M47.57 17.17H35.41v-3h12.16v3zM27.31 29.56A8 8 0 0 1 28.48 34a8.81 8.81 0 0 1-1.34 4.82A8.36 8.36 0 0 1 25 41.18a8.26 8.26 0 0 1-3.41 1.52 21.08 21.08 0 0 1-4.27.41H3.72V12.89h14.59C22 13 24.6 14 26.14 16.11a7.69 7.69 0 0 1 1.38 4.61 6.73 6.73 0 0 1-1.4 4.45 7.12 7.12 0 0 1-2.3 1.72 6.71 6.71 0 0 1 3.49 2.67zM10.69 24.8h6.39a6.06 6.06 0 0 0 3.19-.75 2.86 2.86 0 0 0 1.23-2.65 2.7 2.7 0 0 0-1.62-2.79 11.41 11.41 0 0 0-3.57-.47h-5.62zm11.43 8.75a3.24 3.24 0 0 0-1.92-3.24 7.57 7.57 0 0 0-3-.51h-6.51v8.05h6.38a7.09 7.09 0 0 0 3.06-.53 3.81 3.81 0 0 0 1.99-3.76zm30-4.92a28.42 28.42 0 0 1 .19 4.3H36.52q.13 3.26 2.26 4.57a5.7 5.7 0 0 0 3.12.81 4.39 4.39 0 0 0 4.3-2.48H52a7 7 0 0 1-2.1 3.91Q47 42.9 41.76 42.9a11.81 11.81 0 0 1-7.62-2.66q-3.29-2.67-3.3-8.67 0-5.63 3-8.63a10.44 10.44 0 0 1 7.74-3 12.34 12.34 0 0 1 5.09 1 8.76 8.76 0 0 1 3.74 3.2 10.68 10.68 0 0 1 1.68 4.5zm-5.68.56a4.73 4.73 0 0 0-1.51-3.42 4.93 4.93 0 0 0-3.35-1.17 4.49 4.49 0 0 0-3.38 1.24 5.83 5.83 0 0 0-1.51 3.35h9.71z" class="cls-1"/></svg>