<svg xmlns="http://www.w3.org/2000/svg" viewBox="0 0 56 56" width="56" height="56"><path d="M28 12.18c5.15 0 5.76 0 7.8.11a10.68 10.68 0 0 1 3.58.66A6.39 6.39 0 0 1 43 16.62a10.68 10.68 0 0 1 .66 3.58c.09 2 .11 2.65.11 7.8s0 5.76-.11 7.8a10.68 10.68 0 0 1-.66 3.58A6.39 6.39 0 0 1 39.38 43a10.68 10.68 0 0 1-3.58.66c-2 .09-2.65.11-7.8.11s-5.76 0-7.8-.11a10.68 10.68 0 0 1-3.58-.66A6.39 6.39 0 0 1 13 39.38a10.68 10.68 0 0 1-.66-3.58c-.09-2-.11-2.65-.11-7.8s0-5.76.11-7.8a10.68 10.68 0 0 1 .66-3.58A6.39 6.39 0 0 1 16.62 13a10.68 10.68 0 0 1 3.58-.66c2-.09 2.65-.11 7.8-.11m0-3.53c-5.24 0-5.9 0-8 .12a14.17 14.17 0 0 0-4.69.9 9.87 9.87 0 0 0-5.65 5.65A14.17 14.17 0 0 0 8.81 20c-.09 2.06-.12 2.72-.12 8s0 5.9.12 8a14.17 14.17 0 0 0 .9 4.69 9.87 9.87 0 0 0 5.65 5.65 14.17 14.17 0 0 0 4.69.9c2.06.09 2.72.12 8 .12s5.9 0 8-.12a14.17 14.17 0 0 0 4.69-.9 9.87 9.87 0 0 0 5.65-5.65 14.17 14.17 0 0 0 .9-4.69c.09-2.06.12-2.72.12-8s0-5.9-.12-8a14.17 14.17 0 0 0-.9-4.69 9.87 9.87 0 0 0-5.65-5.65A14.17 14.17 0 0 0 36 8.81c-2.06-.09-2.72-.12-8-.12z"/><path d="M28 18.09A9.91 9.91 0 1 0 37.91 28 9.91 9.91 0 0 0 28 18.09zm0 16.35A6.43 6.43 0 1 1 34.43 28 6.43 6.43 0 0 1 28 34.43z"/><circle cx="38.3" cy="17.7" r="2.32"/></svg>