<svg id="Layer_1" data-name="Layer 1" xmlns="http://www.w3.org/2000/svg" viewBox="0 0 1080 1080"><defs><style>.cls-1,.cls-2,.cls-3{fill:none;stroke-linecap:round;stroke-width:5px;}.cls-1,.cls-2{stroke:#bb8588;}.cls-1,.cls-3{stroke-miterlimit:10;}.cls-2{stroke-linejoin:round;}.cls-3{stroke:#f4f2e1;}</style></defs><title>Artboard 1</title><path class="cls-1" d="M405.1,502.59s6-55.5,63-61.5c0,0,110-101.57,282.49,28.5,0,0,16-151.49-162.5-157.49"/><path class="cls-1" d="M394.6,459.09s-19.5-60.75,19.5-90c0,0-9-40.5,21-54.65,0,0,21-132.84,171-71.35,0,0,49.5-34,64.5,41,0,0,30,22.19,58.05,95.08"/><rect class="cls-2" x="469.43" y="358.3" width="63" height="37.5" transform="translate(-79.28 139.46) rotate(-14.7)"/><path class="cls-1" d="M696.25,434.77s5.42-18.44,0-47.67"/><path class="cls-1" d="M665.56,420.63s2.9-25.76,0-51.53"/><line class="cls-3" x1="231.22" y1="955.94" x2="310.6" y2="907.57"/><line class="cls-3" x1="434.99" y1="937.73" x2="389.72" y2="1003.57"/><line class="cls-3" x1="455.38" y1="951.34" x2="420.85" y2="1044.22"/><line class="cls-3" x1="780.37" y1="883.78" x2="843.08" y2="914.38"/><line class="cls-3" x1="811.72" y1="989.19" x2="771.08" y2="955.94"/><path class="cls-3" d="M942.17,866.49s-87.09-38.42-136.59-36.92c0,0-43.5,118.49-198,151.49h-61.5"/></svg>