<svg id="Layer_1" data-name="Layer 1" xmlns="http://www.w3.org/2000/svg" viewBox="0 0 1080 1080"><defs><style>.cls-1{fill:none;stroke:#231f20;stroke-linecap:round;stroke-miterlimit:10;stroke-width:4px;}</style></defs><title>portrait</title><path class="cls-1" d="M484.56,312.4C520.38,285.72,571.68,269.77,647,299c58.33,22.64,85.15,64.21,96.53,105.85C758.29,458.87,747.08,513,745,526c-8,50,0,72-24,86,0,0-14,76-34,90l-6,64s96,62,134,68,101,15.5,130.5,34.75"/><path class="cls-1" d="M169.77,895S187,855,243,849c0,0,156-22,208-91,30.69-40.72,6-84,0-110s-10-54-10-54-32,2-44-40-10-50,12-48"/><path class="cls-1" d="M402.3,467.31c2-10-2-66,36-116"/></svg>